# xmcd CD database file
#
# Track frame offsets:
#	150
#	16630
#	32620
#	52967
#	67975
#	84346
#	101682
#	118990
#	135974
#	152580
#	171828
#	187582
#	204095
#	222317
#	237723
#	253788
#	273093
#	288268
#	304876
#	322160
#	339644
#
# Disc length: 4741 seconds
#
# Revision: 2
# Processed by: cddbd v1.4b41PL1 Copyright (c) Steve Scherf et al.
# Submitted via: Feurio! 1.50.2ß - http://www.feurio.com
#
DISCID=1f128315
DTITLE=Various Artist - The Dome Vol. 16
DYEAR=1900
DGENRE=
TTITLE0=BROOKLYN BOUNCE - BASS - BEATS and MELODY
TTITLE1=ATC - THINKING OF LOVE
TTITLE2=TIC TAC TOE - MORGEN IST HEUTE SCHON GESTERN
TTITLE3=ANASTACIA - NOT THAT KIND
TTITLE4=CHRISTIAN - ES IST GEIL EIN ARSCHLOCH ZU SEIN
TTITLE5=HIM - GONE WITH THE SIN
TTITLE6=SUB7EVEN - WEATHERMAN
TTITLE7=HYPERCHILD - WONDERFUL LIFE
TTITLE8=VANESSA AMOROSI - ABSOLUTELY EVERYBODY
TTITLE9=DARUDE - FEEL THE BEAT
TTITLE10=MAURO PICOTTO - PROXIMUS
TTITLE11=BOMFUNK MC`S - UPROCKING BEATS
TTITLE12=RICKY MARTIN - SHE BANGS
TTITLE13=GIGI D`AGOSTINO - LA PASSION
TTITLE14=JEANETTE - GO BACK
TTITLE15=TOPLOADER - ACHILLES HEEL
TTITLE16=CHRISTINA AGUILERA - COME ON OVER BABY
TTITLE17=ATB FEAT. YORK - THE FIELDS OF LOVE
TTITLE18=WESTLIFE - MY LOVE
TTITLE19=ECHT - 2010
TTITLE20=ENRIQUE IGLESIAS - BE WITH YOU
EXTD=
EXTT0=
EXTT1=
EXTT2=
EXTT3=
EXTT4=
EXTT5=
EXTT6=
EXTT7=
EXTT8=
EXTT9=
EXTT10=
EXTT11=
EXTT12=
EXTT13=
EXTT14=
EXTT15=
EXTT16=
EXTT17=
EXTT18=
EXTT19=
EXTT20=
PLAYORDER=
